<svg width="1440" height="504" viewBox="0 0 1440 504" fill="none" xmlns="http://www.w3.org/2000/svg">
<g opacity="0.3">
<g filter="url(#filter0_f_124_1984)">
<path d="M354.427 298.048C-248.624 145.512 -112.893 497.851 30.3539 693.087C76.9773 818.351 152.181 1114.43 80.0058 1296.64C-10.2126 1524.4 1108.34 1424.43 1430.78 749.15C1753.22 73.8659 1381.65 255.759 1212.46 339.697C1043.26 423.634 1108.24 488.717 354.427 298.048Z" fill="#8133F1"/>
</g>
<g filter="url(#filter1_f_124_1984)">
<path d="M1031.55 1276.71C1603.87 1453.7 1498.6 1105.24 1374.43 908.882C1338.58 785.073 1287.73 494.114 1371.07 320.743C1475.24 104.031 385.333 147.34 23.2823 787.226C-338.769 1427.11 34.2943 1268.43 204.253 1195.09C374.211 1121.75 316.145 1055.47 1031.55 1276.71Z" fill="#F133E1"/>
</g>
</g>
<defs>
<filter id="filter0_f_124_1984" x="-152.131" y="192.848" width="1770.24" height="1273.75" filterUnits="userSpaceOnUse" color-interpolation-filters="sRGB">
<feFlood flood-opacity="0" result="BackgroundImageFix"/>
<feBlend mode="normal" in="SourceGraphic" in2="BackgroundImageFix" result="shape"/>
<feGaussianBlur stdDeviation="30" result="effect1_foregroundBlur_124_1984"/>
</filter>
<filter id="filter1_f_124_1984" x="-189.464" y="143.098" width="1721.7" height="1242.24" filterUnits="userSpaceOnUse" color-interpolation-filters="sRGB">
<feFlood flood-opacity="0" result="BackgroundImageFix"/>
<feBlend mode="normal" in="SourceGraphic" in2="BackgroundImageFix" result="shape"/>
<feGaussianBlur stdDeviation="30" result="effect1_foregroundBlur_124_1984"/>
</filter>
</defs>
</svg>
