<svg width="291" height="21" viewBox="0 0 291 21" fill="none" xmlns="http://www.w3.org/2000/svg">
<path d="M1.20117 17.1809C5.46141 14.6213 15.7684 9.46783 20.7974 7.73711C25.2048 6.22029 30.3873 4.58917 38.3795 3.87197C51.6975 2.67685 56.7217 1.15349 65.0146 1.00318C72.0164 0.876267 77.6278 4.57199 83.3482 8.29111C87.9773 11.3007 92.2295 13.1612 96.6658 14.4582C101.502 15.8721 107.948 15.4631 113.556 14.4667C120.79 13.1818 125.71 10.0347 130.735 7.7414C140.859 3.12059 153.78 7.14875 158.079 8.87088C164.86 11.5875 169.24 14.3121 177.533 17.5975C185.345 20.6924 195.575 18.3319 200.312 16.3306C204.233 14.674 207.892 11.7526 215.33 9.02978C219.969 7.33161 232.714 7.73281 244.391 6.87819C251.43 6.36304 261.145 7.14875 264.735 8.87088C267.458 11.7354 270.034 13.1698 274.299 13.5992C277.713 13.7452 283.665 13.7452 289.798 13.7452" stroke="#6200EE" stroke-width="2" stroke-linecap="round"/>
</svg>
