<svg width="74" height="20" viewBox="0 0 74 20" fill="none" xmlns="http://www.w3.org/2000/svg">
<g clip-path="url(#clip0_105_1366)">
<path d="M23.2314 9.61494C23.2314 12.8849 25.3101 15.1649 28.1905 15.1649C31.0709 15.1649 33.1495 12.8849 33.1495 9.61494C33.1495 6.34494 31.0709 4.06494 28.1905 4.06494C25.3101 4.06494 23.2314 6.34494 23.2314 9.61494ZM31.2491 9.61494C31.2491 11.9549 29.987 13.4699 28.1905 13.4699C26.394 13.4699 25.1319 11.9549 25.1319 9.61494C25.1319 7.27494 26.394 5.75994 28.1905 5.75994C29.987 5.75994 31.2491 7.27494 31.2491 9.61494Z" fill="black" fill-opacity="0.5"/>
<path d="M38.5014 15.165C40.684 15.165 41.9312 13.305 41.9312 11.07C41.9312 8.83498 40.684 6.97498 38.5014 6.97498C37.4918 6.97498 36.7494 7.37998 36.2595 7.96498V7.12498H34.4778V17.7H36.2595V14.175C36.7494 14.76 37.4918 15.165 38.5014 15.165ZM36.2149 10.845C36.2149 9.35998 37.0464 8.54998 38.1451 8.54998C39.4368 8.54998 40.1347 9.56998 40.1347 11.07C40.1347 12.57 39.4368 13.59 38.1451 13.59C37.0464 13.59 36.2149 12.765 36.2149 11.31V10.845Z" fill="black" fill-opacity="0.5"/>
<path d="M46.7529 15.165C48.3119 15.165 49.5442 14.34 50.0936 12.96L48.5643 12.375C48.3267 13.185 47.6289 13.635 46.7529 13.635C45.6096 13.635 44.8079 12.81 44.6743 11.46H50.1381V10.86C50.1381 8.69998 48.9355 6.97498 46.6787 6.97498C44.4218 6.97498 42.9668 8.75998 42.9668 11.07C42.9668 13.5 44.5258 15.165 46.7529 15.165ZM46.6638 8.48998C47.7922 8.48998 48.3267 9.23998 48.3416 10.11H44.7633C45.0306 9.04498 45.7433 8.48998 46.6638 8.48998Z" fill="black" fill-opacity="0.5"/>
<path d="M51.4751 15H53.2568V10.38C53.2568 9.25498 54.0734 8.65498 54.8752 8.65498C55.8551 8.65498 56.2411 9.35998 56.2411 10.335V15H58.0228V9.80998C58.0228 8.11498 57.0429 6.97498 55.4097 6.97498C54.4 6.97498 53.7022 7.43998 53.2568 7.96498V7.12498H51.4751V15Z" fill="black" fill-opacity="0.5"/>
<path d="M63.2411 4.22998L59.2026 15H61.0883L61.994 12.54H66.5967L67.5172 15H69.4325L65.394 4.22998H63.2411ZM64.2805 6.35998L65.9731 10.86H62.6176L64.2805 6.35998Z" fill="black" fill-opacity="0.5"/>
<path d="M72.491 4.26123H70.5906V15.0312H72.491V4.26123Z" fill="black" fill-opacity="0.5"/>
<path d="M18.8775 8.1856C19.3267 6.82372 19.172 5.33185 18.4537 4.0931C17.3736 2.1931 15.2022 1.2156 13.0814 1.6756C12.138 0.601846 10.7826 -0.00877931 9.36154 -2.93058e-05C7.19381 -0.00502931 5.27044 1.40497 4.60354 3.48872C3.21098 3.77685 2.00895 4.65747 1.30555 5.9056C0.217357 7.8006 0.465433 10.1893 1.91925 11.8143C1.47011 13.1762 1.62477 14.6681 2.34302 15.9068C3.42317 17.8068 5.59461 18.7843 7.71532 18.3243C8.65814 19.3981 10.0142 20.0087 11.4352 19.9993C13.6042 20.005 15.5282 18.5937 16.1951 16.5081C17.5876 16.22 18.7897 15.3393 19.4931 14.0912C20.58 12.1962 20.3313 9.80935 18.8781 8.18435L18.8775 8.1856ZM11.4365 18.6925C10.5685 18.6937 9.72777 18.3868 9.06149 17.825C9.09181 17.8087 9.14439 17.7793 9.17842 17.7581L13.1204 15.4581C13.3221 15.3425 13.4458 15.1256 13.4446 14.8912V9.27684L15.1106 10.2487C15.1285 10.2575 15.1403 10.275 15.1428 10.295V14.9443C15.1403 17.0118 13.4829 18.6881 11.4365 18.6925ZM3.46586 15.2531C3.03095 14.4943 2.87443 13.605 3.02353 12.7418C3.0526 12.7593 3.10395 12.7912 3.14045 12.8125L7.08245 15.1125C7.28227 15.2306 7.52973 15.2306 7.73017 15.1125L12.5426 12.305V14.2487C12.5438 14.2687 12.5346 14.2881 12.5191 14.3006L8.53441 16.625C6.75952 17.6575 4.49281 17.0437 3.46648 15.2531H3.46586ZM2.42839 6.55997C2.86144 5.79997 3.54504 5.21872 4.35918 4.91685C4.35918 4.95122 4.35732 5.01185 4.35732 5.05435V9.65497C4.35609 9.88872 4.47981 10.1056 4.68087 10.2212L9.49331 13.0281L7.8273 14C7.81059 14.0112 7.78956 14.0131 7.771 14.005L3.7857 11.6787C2.01452 10.6425 1.40701 8.3531 2.42777 6.5606L2.42839 6.55997ZM16.1165 9.7781L11.3041 6.9706L12.9701 5.99935C12.9868 5.9881 13.0078 5.98622 13.0264 5.99435L17.0117 8.31872C18.786 9.35435 19.3941 11.6475 18.369 13.44C17.9353 14.1987 17.2523 14.78 16.4388 15.0825V10.3443C16.4407 10.1106 16.3176 9.89435 16.1171 9.7781H16.1165ZM17.7745 7.25685C17.7454 7.23872 17.6941 7.20747 17.6576 7.18622L13.7156 4.88622C13.5157 4.7681 13.2683 4.7681 13.0678 4.88622L8.2554 7.69372V5.74997C8.25416 5.72997 8.26344 5.7106 8.27891 5.6981L12.2636 3.3756C14.0385 2.34122 16.3077 2.95685 17.3309 4.7506C17.7633 5.5081 17.9199 6.39497 17.7732 7.25685H17.7745ZM7.3497 10.7212L5.68308 9.74935C5.66514 9.7406 5.65338 9.7231 5.65091 9.7031V5.05372C5.65214 2.98372 7.31444 1.30622 9.36339 1.30747C10.2301 1.30747 11.069 1.61497 11.7353 2.17497C11.705 2.19122 11.653 2.2206 11.6183 2.24185L7.67635 4.54185C7.47467 4.65747 7.35094 4.87372 7.35218 5.1081L7.3497 10.72V10.7212ZM8.25478 8.74997L10.3984 7.49935L12.542 8.74935V11.25L10.3984 12.5L8.25478 11.25V8.74997Z" fill="black" fill-opacity="0.5"/>
</g>
<defs>
<clipPath id="clip0_105_1366">
<rect width="73" height="20" fill="white" transform="translate(0.5)"/>
</clipPath>
</defs>
</svg>
