<svg xmlns="http://www.w3.org/2000/svg" xmlns:xlink="http://www.w3.org/1999/xlink" version="1.1" x="0px" y="0px" viewBox="0 0 1024 1280" style="enable-background:new 0 0 1024 1024;" xml:space="preserve"><g><circle cx="430.6" cy="306.8" r="194.2"/><g><path d="M614.8,306.8C614.5,383.2,565.9,454,493.6,480c-36.3,13-76.1,14.6-113.3,4.1    c-36.2-10.2-68.4-31.6-92.3-60.5c-49.1-59.3-54.8-146.2-15.1-211.9c39.7-65.7,118.8-100.8,194.2-85.4    c75.2,15.4,133.8,77.1,145.7,152.8C614.2,288.2,614.8,297.6,614.8,306.8c0,12.9,20,12.9,20,0c-0.2-42.2-13.2-84.1-37.9-118.5    c-24.2-33.6-57.8-59.2-96.7-73.5c-79.9-29.3-173.3-3.8-227.1,62.2c-26.7,32.6-42.8,72.4-46,114.5c-3.3,41.9,6.9,84.7,28.6,120.7    c21.2,35.1,53.2,63.9,90.7,80.7c39.3,17.6,83.2,22.5,125.4,14c82-16.5,148.1-85.5,160.5-168.3c1.6-10.5,2.5-21.1,2.5-31.7    C634.8,294,614.8,293.9,614.8,306.8z"/></g></g><g><path d="M100.5,962.1c-20.9,0-37.8-16.9-37.8-37.8v-56.1c0-202.4,165.6-294.2,368-294.2h0   c202.4,0,368,91.8,368,294.2v56.1c0,20.9-16.9,37.8-37.8,37.8H100.5z"/><g><path d="M100.5,952.1c-9.6-0.2-18.6-4.9-23.7-13.2c-3.4-5.5-4.1-11.3-4.1-17.7c0-14.6,0-29.2,0-43.8    c0-37.5,3.7-73.9,16.4-109.4c12.8-35.8,34.4-68.1,62.4-94.2c28-26.1,62.8-46.2,98.6-59.8c40.7-15.5,83.9-24.2,127.2-27.9    c45.6-3.9,92.2-3.1,137.6,3.5c41.9,6.1,84,17.2,121.8,35.3c35.4,16.9,66.7,39.1,92.4,68.9c25.1,29.1,42.6,64.9,51.7,102.9    c8.1,34.1,7.9,68.5,7.9,103.4c0,6.9,0,13.7,0,20.6c0,6-0.5,11.6-3.5,17c-5.3,9.4-14.9,14.3-25.5,14.4c-9.4,0-18.8,0-28.2,0    c-19.8,0-39.6,0-59.5,0c-27.4,0-54.7,0-82.1,0c-32,0-64.1,0-96.1,0c-33.8,0-67.7,0-101.5,0c-32.7,0-65.5,0-98.2,0    c-28.7,0-57.3,0-86,0c-22,0-44,0-65.9,0c-12.3,0-24.5,0-36.8,0C103.7,952.1,102.1,952.1,100.5,952.1c-12.9,0-12.9,20,0,20    c6.8,0,13.7,0,20.5,0c18.3,0,36.6,0,54.9,0c26.9,0,53.7,0,80.6,0c32.1,0,64.2,0,96.3,0c34.6,0,69.2,0,103.8,0c33.7,0,67.3,0,101,0    c30,0,59.9,0,89.9,0c22.9,0,45.9,0,68.8,0c13,0,26.1,0,39.1,0c1.8,0,3.6,0,5.4,0c26.3-0.4,47.5-21.5,47.8-47.9    c0.4-27.7,1.1-56-1.1-83.6c-3.4-43.5-15.2-86.3-37.6-124c-20.7-34.8-49.7-63.9-83.3-86.3c-35.5-23.7-75.9-39.8-117.2-50.2    c-45.2-11.4-92.2-16.1-138.8-16.1c-47.2,0-94.8,4.9-140.6,16.6c-41,10.5-81.1,26.7-116.3,50.4C140,653.6,111,683,90.5,718.1    C68.4,755.8,56.8,798.6,53.6,842c-1.1,15.1-1,30.3-1,45.5c0,12.5-0.3,25,0,37.5c0.6,26.1,21.9,46.7,47.8,47.2    C113.4,972.3,113.4,952.3,100.5,952.1z"/></g></g><g><g><path d="M703.2,218.6c5.2,5.2,10,10.7,14.5,16.5c-2.1-2.7-4.2-5.4-6.3-8.1c8.3,11,15.2,22.8,20.7,35.5    c-1.3-3.2-2.7-6.4-4-9.6c5.7,13.7,9.7,28,11.7,42.7c-0.5-3.5-1-7.1-1.4-10.6c1.9,14.6,1.9,29.3,0,43.9c0.5-3.5,1-7.1,1.4-10.6    c-2,14.7-5.9,29-11.7,42.7c1.3-3.2,2.7-6.4,4-9.6c-5.4,12.6-12.4,24.5-20.7,35.5c2.1-2.7,4.2-5.4,6.3-8.1    c-4.5,5.8-9.3,11.3-14.5,16.5c-14.7,14.9-16,41.9,0,56.6c15.9,14.6,40.8,15.9,56.6,0c28.5-28.8,49.6-66.7,56.3-106.8    c3.4-20,4.8-39.8,2.3-60c-1.5-11.6-3.1-23-6.4-34.3c-3.2-11.1-7.7-21.9-12.5-32.4c-9.5-20.8-23.6-40-39.7-56.2    c-14.8-14.9-42-15.9-56.6,0C688.5,178,687.5,202.7,703.2,218.6L703.2,218.6z"/></g></g><g><g><path d="M831.6,90.2c10.7,10.7,20.7,22.1,29.9,34c-2.1-2.7-4.2-5.4-6.3-8.1c17.8,23.3,32.7,48.7,44.2,75.7    c-1.3-3.2-2.7-6.4-4-9.6c12,28.6,20.2,58.6,24.3,89.3c-0.5-3.5-1-7.1-1.4-10.6c4,30.5,4,61.4,0,91.9c0.5-3.5,1-7.1,1.4-10.6    c-4.1,30.7-12.3,60.7-24.3,89.3c1.3-3.2,2.7-6.4,4-9.6c-11.5,27-26.3,52.4-44.2,75.7c2.1-2.7,4.2-5.4,6.3-8.1    c-9.2,12-19.2,23.3-29.9,34c-14.8,14.8-15.9,41.9,0,56.6c15.9,14.6,40.8,15.8,56.6,0c55.1-55.3,94-127.9,107-205.1    c6.3-37.9,8.1-75.9,3.2-114.1c-2.7-20.7-6.2-41.1-12-61.2c-5.8-20-13.5-39.5-22.3-58.4c-18.4-39.9-44.8-76.5-75.8-107.6    c-14.8-14.8-42-15.9-56.6,0C816.9,49.6,815.8,74.3,831.6,90.2L831.6,90.2z"/></g></g><text x="0" y="1039" fill="#000000" font-size="5px" font-weight="bold" font-family="'Helvetica Neue', Helvetica, Arial-Unicode, Arial, Sans-serif">Created by shashank singh</text><text x="0" y="1044" fill="#000000" font-size="5px" font-weight="bold" font-family="'Helvetica Neue', Helvetica, Arial-Unicode, Arial, Sans-serif">from the Noun Project</text></svg>